<svg xmlns="http://www.w3.org/2000/svg" viewBox="0 0 72 72" width="64" height="64" role="img" aria-label="Biddr">
  <defs>
    <linearGradient id="fav-gold" x1="0" y1="0" x2="0" y2="1">
      <stop offset="0%" stop-color="#fff1c2"/>
      <stop offset="35%" stop-color="#f5c969"/>
      <stop offset="70%" stop-color="#cf8d20"/>
      <stop offset="100%" stop-color="#8a5a14"/>
    </linearGradient>
  </defs>
  <path fill="url(#fav-gold)" fill-rule="evenodd" clip-rule="evenodd" d="
    M 4 6
    L 56 6
    C 64.5 6 70 12.5 70 21
    C 70 27.6 66.5 32.4 60.4 34.3
    C 67 35.8 71 41 71 48
    C 71 57 64 64 55 64
    L 4 64
    Z
    M 22 16 L 30 16 C 33.6 16 36 18 36 21 C 36 24 33.6 26 30 26 L 22 26 Z
    M 22 30 L 32 30 C 36.2 30 39 32.4 39 36.5 C 39 40.6 36.2 43 32 43 L 22 43 Z
    M 22 49 L 30 49 L 30 53 L 41 51 L 39 49 L 36 49 L 33 47 L 30 46 L 26 47 Z
  "/>
</svg>
